<svg width="32" height="35" viewBox="0 0 32 35" fill="none" xmlns="http://www.w3.org/2000/svg">
<path d="M16.8488 33.915C13.9037 31.6033 7.78207 25.2086 6.77232 11.4124C6.76592 11.3693 6.74613 11.3294 6.71583 11.2985C6.68554 11.2676 6.6463 11.2472 6.60382 11.2404C6.56133 11.2336 6.51781 11.2406 6.47955 11.2605C6.44129 11.2804 6.41028 11.3122 6.39103 11.3511L4.24005 16.1052C4.22665 16.1308 4.20823 16.1534 4.18593 16.1715C4.16362 16.1896 4.1379 16.203 4.11034 16.2107C4.08278 16.2184 4.05394 16.2204 4.02561 16.2164C3.99727 16.2125 3.97003 16.2028 3.94554 16.1878L0.314117 13.9053C0.28277 13.8806 0.244704 13.8662 0.205036 13.864C0.165368 13.8619 0.125997 13.872 0.0922139 13.8932C0.0584305 13.9144 0.0318533 13.9455 0.0160532 13.9824C0.000253109 14.0194 -0.00401281 14.0603 0.00382862 14.0997C0.569184 16.5447 3.92187 28.4179 16.6253 34.2293C16.833 34.3252 17.0302 34.0562 16.8488 33.915Z" fill="#D4AD60"/>
<path d="M11.4845 5.23881C10.7114 7.39879 7.69004 17.5275 14.924 27.3153C15.0502 27.4858 15.3315 27.3499 15.2605 27.1555C14.1351 24.0847 12.0998 15.8389 17.7271 5.98988C17.7445 5.9535 17.7498 5.91235 17.7422 5.87265C17.7345 5.83295 17.7144 5.79685 17.6847 5.76979C17.655 5.74273 17.6174 5.72618 17.5776 5.72264C17.5378 5.71911 17.498 5.72877 17.4641 5.75018L13.4461 8.10458C13.4007 8.12847 13.3478 8.13349 13.2987 8.11858C13.2496 8.10366 13.2082 8.06999 13.1832 8.02468L11.8369 5.22283C11.8197 5.18957 11.7936 5.16196 11.7615 5.14324C11.7294 5.12452 11.6927 5.11546 11.6557 5.11714C11.6186 5.11882 11.5829 5.13116 11.5526 5.15271C11.5222 5.17427 11.4986 5.20414 11.4845 5.23881V5.23881Z" fill="black"/>
<path d="M17.096 19.5543C17.8849 16.4009 20.7537 9.16723 31.2957 3.7926C31.332 3.77444 31.361 3.74414 31.3779 3.70682C31.3948 3.66949 31.3984 3.62742 31.3882 3.5877C31.378 3.54797 31.3546 3.51302 31.322 3.48873C31.2893 3.46444 31.2493 3.4523 31.2089 3.45435H26.4441C26.418 3.4553 26.3919 3.45051 26.3678 3.44032C26.3436 3.43012 26.322 3.41475 26.3042 3.39527C26.2865 3.3758 26.2731 3.35266 26.265 3.32746C26.257 3.30226 26.2544 3.27559 26.2574 3.24927L26.7044 0.207731C26.7075 0.170301 26.6997 0.132777 26.6819 0.0998153C26.6641 0.066854 26.6372 0.0399074 26.6044 0.0223203C26.5716 0.0047332 26.5345 -0.00272002 26.4976 0.000885821C26.4607 0.00449166 26.4256 0.0189978 26.3968 0.0426035C24.5561 1.43287 16.4255 8.19511 16.7121 19.5143C16.7069 19.5659 16.7221 19.6175 16.7544 19.6577C16.7867 19.6979 16.8334 19.7234 16.8843 19.7287C16.9353 19.734 16.9862 19.7186 17.0259 19.6859C17.0656 19.6532 17.0908 19.6059 17.096 19.5543V19.5543Z" fill="#D4AD60"/>
</svg>
