<svg width="1179" height="325" viewBox="0 0 1179 325" fill="none" xmlns="http://www.w3.org/2000/svg">
<path d="M158.9 319.851C131.125 298.049 73.3922 237.741 63.8693 107.63C63.8089 107.224 63.6223 106.848 63.3366 106.556C63.0509 106.264 62.6809 106.072 62.2802 106.008C61.8795 105.944 61.469 106.01 61.1082 106.198C60.7474 106.386 60.455 106.685 60.2734 107.053L39.9877 151.888C39.8612 152.129 39.6875 152.342 39.4772 152.513C39.2669 152.684 39.0243 152.81 38.7644 152.883C38.5044 152.956 38.2325 152.974 37.9653 152.937C37.698 152.9 37.4411 152.808 37.2101 152.667L2.96242 131.141C2.66678 130.907 2.30779 130.772 1.93368 130.751C1.55957 130.731 1.18827 130.827 0.869663 131.027C0.551054 131.226 0.300406 131.52 0.151397 131.868C0.00238705 132.216 -0.0378446 132.602 0.0361075 132.974C5.36794 156.032 36.9869 268.008 156.792 322.815C158.751 323.719 160.611 321.182 158.9 319.851Z" fill="#D4AD60"/>
<path d="M108.309 49.4069C101.018 69.7775 72.5239 165.301 140.747 257.609C141.937 259.216 144.59 257.935 143.921 256.102C133.307 227.141 114.112 149.376 167.183 56.4901C167.347 56.147 167.397 55.759 167.325 55.3846C167.253 55.0102 167.063 54.6697 166.783 54.4145C166.503 54.1593 166.148 54.0032 165.773 53.9699C165.398 53.9365 165.022 54.0276 164.703 54.2295L126.809 76.4337C126.38 76.659 125.882 76.7064 125.419 76.5657C124.956 76.4251 124.565 76.1075 124.329 75.6802L111.632 49.2562C111.471 48.9425 111.224 48.6821 110.921 48.5055C110.618 48.329 110.272 48.2436 109.923 48.2594C109.574 48.2752 109.237 48.3916 108.951 48.5949C108.665 48.7981 108.442 49.0798 108.309 49.4069Z" fill="black"/>
<path d="M161.231 184.415C168.671 154.676 195.727 86.4556 295.147 35.7677C295.489 35.5965 295.763 35.3107 295.922 34.9587C296.081 34.6067 296.116 34.21 296.02 33.8353C295.923 33.4607 295.703 33.131 295.395 32.902C295.087 32.6729 294.71 32.5584 294.328 32.5778H249.392C249.145 32.5867 248.9 32.5416 248.672 32.4454C248.445 32.3492 248.24 32.2043 248.073 32.0206C247.906 31.8369 247.78 31.6188 247.703 31.3811C247.627 31.1434 247.603 30.8919 247.631 30.6437L251.847 1.9591C251.876 1.6061 251.802 1.25221 251.635 0.941352C251.467 0.630496 251.213 0.376365 250.904 0.210502C250.595 0.0446385 250.245 -0.0256523 249.896 0.00835412C249.548 0.0423605 249.218 0.179167 248.946 0.401791C231.586 13.5133 154.907 77.2876 157.61 184.039C157.561 184.525 157.704 185.011 158.009 185.39C158.313 185.769 158.754 186.011 159.234 186.061C159.715 186.11 160.195 185.965 160.569 185.657C160.943 185.348 161.181 184.902 161.231 184.415Z" fill="#D4AD60"/>
<path d="M349.93 162.01V323.141H320.171V242.764L296.091 297.772H278.731L254.651 242.764V323.141H224.892V162.01H241.929L287.361 251.329L332.769 162.01H349.93Z" fill="black"/>
<path d="M411.704 325C398.709 325 388.252 321.852 380.333 315.556C375.905 311.957 372.374 307.353 370.026 302.117C367.678 296.882 366.579 291.16 366.817 285.414V199.762C366.579 194.017 367.678 188.295 370.026 183.059C372.374 177.823 375.905 173.22 380.333 169.621C388.269 163.325 398.726 160.177 411.704 160.177C424.682 160.177 435.131 163.325 443.05 169.621C447.486 173.215 451.024 177.816 453.376 183.053C455.728 188.29 456.83 194.014 456.59 199.762V285.389C456.83 291.137 455.728 296.862 453.376 302.098C451.024 307.335 447.486 311.937 443.05 315.531C435.164 321.827 424.715 324.983 411.704 325ZM411.704 185.495C407.811 185.183 403.924 186.152 400.619 188.258C397.916 190.418 396.552 194.236 396.552 199.762V285.389C396.552 290.915 397.907 294.75 400.619 296.893C403.915 299.022 407.808 300.001 411.704 299.681C416.912 299.681 420.632 298.752 422.789 296.893C425.484 294.917 426.831 291.082 426.831 285.389V199.762C426.831 194.086 425.484 190.251 422.789 188.258C420.706 186.425 416.986 185.495 411.704 185.495Z" fill="black"/>
<path d="M598.515 162.01V323.141H568.756V242.764L544.701 297.772H527.342L503.46 242.814V323.192H473.701V162.01H490.738L536.145 251.329L581.578 162.01H598.515Z" fill="black"/>
<path d="M647.421 187.329V227.844H689.579V253.163H647.421V297.823H706.815V323.141H618.034V162.01H706.815V187.329H647.421Z" fill="black"/>
<path d="M816.552 323.141H799.192L753.934 241.433V323.141H724.175V162.01H741.534L786.966 243.493V162.01H816.725L816.552 323.141Z" fill="black"/>
<path d="M923.758 187.329H893.478V323.141H863.719V187.329H833.439V162.01H923.758V187.329Z" fill="black"/>
<path d="M986.872 325C973.894 325 963.437 321.852 955.501 315.556C951.073 311.957 947.542 307.354 945.195 302.118C942.847 296.882 941.748 291.16 941.986 285.414V162.01H971.745V285.389C971.745 291.066 972.985 294.909 975.514 296.893C978.905 299.038 982.889 300.016 986.872 299.681C990.768 299.993 994.659 299.015 997.958 296.893C1000.67 294.767 1002.02 290.932 1002.02 285.389V162.01H1031.78V285.389C1031.95 291.124 1030.81 296.82 1028.47 302.044C1026.13 307.268 1022.64 311.88 1018.27 315.531C1009.95 321.827 999.487 324.983 986.872 325Z" fill="black"/>
<path d="M1178.87 162.01V323.141H1148.24V242.764L1123.44 297.772H1105.68L1080.89 242.764V323.141H1050.61V162.01H1068.11L1114.74 251.329L1161.38 162.01H1178.87Z" fill="black"/>
</svg>
